<svg width="292" height="101" viewBox="0 0 292 101" fill="none" xmlns="http://www.w3.org/2000/svg">
<path fill-rule="evenodd" clip-rule="evenodd" d="M28.0653 0C18.982 0 11.6186 7.36347 11.6186 16.4468V42.7627C11.6186 51.846 18.982 59.2095 28.0653 59.2095C37.1486 59.2095 44.5121 51.846 44.5121 42.7627V16.4468C44.5121 7.36346 37.1486 0 28.0653 0ZM55.5214 42.1749C55.5141 40.7266 54.2148 39.6751 52.7739 39.8205C51.3329 39.966 50.299 41.2544 50.2737 42.7024C50.2351 44.9145 49.8661 47.1133 49.1747 49.2252C48.2106 52.1699 46.6411 54.8803 44.5671 57.1823C42.493 59.4842 39.9603 61.3268 37.1317 62.5915C34.3031 63.8562 31.2411 64.5151 28.1426 64.5258C25.0442 64.5365 21.9777 63.8989 19.1404 62.6538C16.3031 61.4087 13.7576 59.5838 11.6677 57.2963C9.57774 55.0088 7.98951 52.3093 7.00508 49.3713C6.29907 47.2643 5.91483 45.068 5.86086 42.8563C5.82553 41.4085 4.7827 40.1273 3.34077 39.9918C1.89885 39.8563 0.606951 40.9169 0.609623 42.3652C0.615053 45.3079 1.09359 48.2366 2.03215 51.0376C3.24903 54.6693 5.21228 58.0062 7.79572 60.8338C10.3792 63.6615 13.5256 65.9174 17.0329 67.4564C19.6038 68.5845 22.3268 69.3093 25.106 69.6106V77.5194H14.5709C13.0028 77.5194 11.7317 78.7906 11.7317 80.3587C11.7317 81.9268 13.0028 83.198 14.5709 83.198H41.5597C43.1277 83.198 44.3989 81.9268 44.3989 80.3587C44.3989 78.7906 43.1277 77.5194 41.5597 77.5194H31.0246V69.6107C33.8676 69.3025 36.6511 68.5514 39.2724 67.3793C42.7689 65.816 45.8997 63.5384 48.4635 60.6929C51.0273 57.8474 52.9674 54.497 54.159 50.857C55.0782 48.0495 55.5364 45.1176 55.5214 42.1749Z" fill="url(#paint0_linear_523_7280)"/>
<mask id="path-2-inside-1_523_7280" fill="white">
<path fill-rule="evenodd" clip-rule="evenodd" d="M31.8856 16.0677C31.8856 15.6189 31.5218 15.2551 31.073 15.2551H25.0584C24.6097 15.2551 24.2458 15.6189 24.2458 16.0677V21.2584C24.2458 21.7072 23.882 22.071 23.4332 22.071H18.2426C17.7938 22.071 17.43 22.4348 17.43 22.8836V28.8982C17.43 29.3469 17.7938 29.7108 18.2426 29.7108H23.4332C23.882 29.7108 24.2458 30.0746 24.2458 30.5234V35.7139C24.2458 36.1627 24.6097 36.5266 25.0585 36.5266H31.073C31.5218 36.5266 31.8856 36.1627 31.8856 35.7139V30.5234C31.8856 30.0746 32.2494 29.7108 32.6982 29.7108H37.8888C38.3376 29.7108 38.7014 29.3469 38.7014 28.8982V22.8836C38.7014 22.4348 38.3376 22.071 37.8888 22.071H32.6982C32.2494 22.071 31.8856 21.7072 31.8856 21.2584V16.0677Z"/>
</mask>
<path fill-rule="evenodd" clip-rule="evenodd" d="M31.8856 16.0677C31.8856 15.6189 31.5218 15.2551 31.073 15.2551H25.0584C24.6097 15.2551 24.2458 15.6189 24.2458 16.0677V21.2584C24.2458 21.7072 23.882 22.071 23.4332 22.071H18.2426C17.7938 22.071 17.43 22.4348 17.43 22.8836V28.8982C17.43 29.3469 17.7938 29.7108 18.2426 29.7108H23.4332C23.882 29.7108 24.2458 30.0746 24.2458 30.5234V35.7139C24.2458 36.1627 24.6097 36.5266 25.0585 36.5266H31.073C31.5218 36.5266 31.8856 36.1627 31.8856 35.7139V30.5234C31.8856 30.0746 32.2494 29.7108 32.6982 29.7108H37.8888C38.3376 29.7108 38.7014 29.3469 38.7014 28.8982V22.8836C38.7014 22.4348 38.3376 22.071 37.8888 22.071H32.6982C32.2494 22.071 31.8856 21.7072 31.8856 21.2584V16.0677Z" fill="#F9F9FF"/>
<path d="M25.0584 15.4177H31.073V15.0926H25.0584V15.4177ZM24.4084 21.2584V16.0677H24.0833V21.2584H24.4084ZM18.2426 22.2336H23.4332V21.9085H18.2426V22.2336ZM17.5925 28.8982V22.8836H17.2675V28.8982H17.5925ZM23.4332 29.5482H18.2426V29.8733H23.4332V29.5482ZM24.4084 35.7139V30.5234H24.0833V35.7139H24.4084ZM31.073 36.364H25.0585V36.6891H31.073V36.364ZM31.7231 30.5234V35.7139H32.0481V30.5234H31.7231ZM37.8888 29.5482H32.6982V29.8733H37.8888V29.5482ZM38.5389 22.8836V28.8982H38.864V22.8836H38.5389ZM32.6982 22.2336H37.8888V21.9085H32.6982V22.2336ZM31.7231 16.0677V21.2584H32.0481V16.0677H31.7231ZM32.6982 21.9085C32.3392 21.9085 32.0481 21.6174 32.0481 21.2584H31.7231C31.7231 21.797 32.1596 22.2336 32.6982 22.2336V21.9085ZM38.864 22.8836C38.864 22.3451 38.4274 21.9085 37.8888 21.9085V22.2336C38.2479 22.2336 38.5389 22.5246 38.5389 22.8836H38.864ZM37.8888 29.8733C38.4274 29.8733 38.864 29.4367 38.864 28.8982H38.5389C38.5389 29.2572 38.2478 29.5482 37.8888 29.5482V29.8733ZM32.0481 30.5234C32.0481 30.1644 32.3392 29.8733 32.6982 29.8733V29.5482C32.1596 29.5482 31.7231 29.9848 31.7231 30.5234H32.0481ZM31.073 36.6891C31.6115 36.6891 32.0481 36.2525 32.0481 35.7139H31.7231C31.7231 36.073 31.432 36.364 31.073 36.364V36.6891ZM24.0833 35.7139C24.0833 36.2525 24.5199 36.6891 25.0585 36.6891V36.364C24.6994 36.364 24.4084 36.073 24.4084 35.7139H24.0833ZM23.4332 29.8733C23.7922 29.8733 24.0833 30.1644 24.0833 30.5234H24.4084C24.4084 29.9848 23.9718 29.5482 23.4332 29.5482V29.8733ZM17.2675 28.8982C17.2675 29.4367 17.7041 29.8733 18.2426 29.8733V29.5482C17.8836 29.5482 17.5925 29.2572 17.5925 28.8982H17.2675ZM18.2426 21.9085C17.7041 21.9085 17.2675 22.3451 17.2675 22.8836H17.5925C17.5925 22.5246 17.8836 22.2336 18.2426 22.2336V21.9085ZM24.0833 21.2584C24.0833 21.6174 23.7922 21.9085 23.4332 21.9085V22.2336C23.9718 22.2336 24.4084 21.797 24.4084 21.2584H24.0833ZM31.073 15.4177C31.432 15.4177 31.7231 15.7087 31.7231 16.0677H32.0481C32.0481 15.5292 31.6115 15.0926 31.073 15.0926V15.4177ZM25.0584 15.0926C24.5199 15.0926 24.0833 15.5292 24.0833 16.0677H24.4084C24.4084 15.7087 24.6994 15.4177 25.0584 15.4177V15.0926Z" fill="white" mask="url(#path-2-inside-1_523_7280)"/>
<path d="M75.1077 42.2949H83.9424L99.2748 83.1053H90.7821L87.3623 73.3587H71.7449L68.325 83.1053H59.8323L75.1077 42.2949ZM84.8544 66.291L81.2635 56.0314L79.7816 51.1296H79.3256L77.8436 56.0314L74.1958 66.291H84.8544ZM122.994 84.0173C119.043 84.0173 115.433 83.0863 112.165 81.2244C108.897 79.3245 106.313 76.7596 104.413 73.5297C102.551 70.2618 101.62 66.652 101.62 62.7001C101.62 58.7483 102.551 55.1574 104.413 51.9275C106.313 48.6597 108.897 46.0948 112.165 44.2328C115.433 42.3329 119.043 41.3829 122.994 41.3829C129.15 41.3829 134.242 43.6059 138.27 48.0517L132.855 53.2955C130.233 50.2176 126.965 48.6787 123.051 48.6787C120.505 48.6787 118.188 49.2676 116.098 50.4456C114.008 51.5856 112.355 53.2195 111.139 55.3474C109.961 57.4753 109.372 59.9262 109.372 62.7001C109.372 65.474 109.961 67.9249 111.139 70.0528C112.355 72.1808 114.008 73.8337 116.098 75.0117C118.188 76.1516 120.505 76.7216 123.051 76.7216C127.345 76.7216 130.936 74.9357 133.824 71.3638L139.296 76.5506C137.282 78.9825 134.888 80.8444 132.114 82.1364C129.378 83.3903 126.338 84.0173 122.994 84.0173ZM154.685 49.5906H143.286V42.2949H173.779V49.5906H162.38V83.1053H154.685V49.5906Z" fill="#4088F0"/>
<path d="M187.961 84.0173C185.073 84.0173 182.47 83.3523 180.152 82.0224C177.835 80.6924 176.011 78.8685 174.681 76.5506C173.389 74.1947 172.743 71.5538 172.743 68.6279C172.743 65.854 173.389 63.2891 174.681 60.9332C175.973 58.5393 177.759 56.6394 180.038 55.2334C182.318 53.8275 184.864 53.1245 187.676 53.1245C190.678 53.1245 193.262 53.7705 195.428 55.0624C197.594 56.3544 199.228 58.1213 200.33 60.3632C201.47 62.6051 202.04 65.094 202.04 67.8299C202.04 68.7039 201.983 69.5399 201.869 70.3378H180.038C180.418 72.6557 181.33 74.4227 182.774 75.6386C184.256 76.8166 186.023 77.4056 188.075 77.4056C189.785 77.4056 191.248 77.0446 192.464 76.3226C193.718 75.5626 194.706 74.5557 195.428 73.3017L201.47 76.2656C198.506 81.4334 194.003 84.0173 187.961 84.0173ZM194.858 65.037C194.782 64.1251 194.44 63.2321 193.832 62.3581C193.262 61.4462 192.445 60.7052 191.381 60.1352C190.355 59.5273 189.139 59.2233 187.733 59.2233C185.947 59.2233 184.408 59.7552 183.116 60.8192C181.862 61.8452 180.95 63.2511 180.38 65.037H194.858ZM207.792 54.0365H214.802V57.6843H215.258C216.17 56.2784 217.386 55.1764 218.906 54.3784C220.464 53.5425 222.193 53.1245 224.093 53.1245C226.145 53.1245 227.931 53.6185 229.451 54.6064C230.971 55.5564 232.054 56.7724 232.7 58.2543C233.65 56.7344 234.941 55.4994 236.575 54.5494C238.247 53.5995 240.204 53.1245 242.446 53.1245C245.752 53.1245 248.26 54.1505 249.97 56.2024C251.718 58.2163 252.592 60.9522 252.592 64.4101V83.1053H245.182V65.778C245.182 63.9541 244.745 62.5481 243.871 61.5602C243.035 60.5722 241.857 60.0782 240.337 60.0782C238.399 60.0782 236.841 60.8572 235.663 62.4151C234.523 63.9351 233.954 65.949 233.954 68.4569V83.1053H226.487V65.778C226.487 63.9541 226.031 62.5481 225.119 61.5602C224.245 60.5722 222.991 60.0782 221.357 60.0782C219.533 60.0782 218.051 60.8572 216.911 62.4151C215.809 63.9351 215.258 65.949 215.258 68.4569V83.1053H207.792V54.0365ZM273.632 84.0173C270.63 84.0173 267.951 83.3523 265.595 82.0224C263.239 80.6544 261.396 78.8115 260.066 76.4936C258.774 74.1377 258.128 71.4968 258.128 68.5709C258.128 65.683 258.774 63.0611 260.066 60.7052C261.396 58.3493 263.239 56.5064 265.595 55.1764C267.951 53.8085 270.63 53.1245 273.632 53.1245C276.595 53.1245 279.255 53.8085 281.611 55.1764C283.967 56.5064 285.791 58.3493 287.083 60.7052C288.413 63.0611 289.078 65.683 289.078 68.5709C289.078 71.4968 288.413 74.1377 287.083 76.4936C285.791 78.8115 283.967 80.6544 281.611 82.0224C279.255 83.3523 276.595 84.0173 273.632 84.0173ZM273.632 77.1206C275.076 77.1206 276.405 76.7786 277.621 76.0946C278.837 75.4106 279.806 74.4227 280.528 73.1307C281.25 71.8388 281.611 70.3188 281.611 68.5709C281.611 66.861 281.25 65.36 280.528 64.0681C279.806 62.7761 278.837 61.7882 277.621 61.1042C276.405 60.4202 275.076 60.0782 273.632 60.0782C272.188 60.0782 270.858 60.4202 269.642 61.1042C268.426 61.7882 267.438 62.7761 266.678 64.0681C265.956 65.36 265.595 66.861 265.595 68.5709C265.595 70.2808 265.956 71.8008 266.678 73.1307C267.438 74.4227 268.426 75.4106 269.642 76.0946C270.858 76.7786 272.188 77.1206 273.632 77.1206Z" fill="#AEDCBA"/>
<defs>
<linearGradient id="paint0_linear_523_7280" x1="18.1472" y1="5.48563" x2="31.1707" y2="82.807" gradientUnits="userSpaceOnUse">
<stop stop-color="#AEDCBA"/>
<stop offset="1" stop-color="#4285F4"/>
</linearGradient>
</defs>
</svg>
